<svg xmlns="http://www.w3.org/2000/svg" xmlns:xlink="http://www.w3.org/1999/xlink" viewBox="0 0 1293 523.42"><defs><style>.cls-1{fill:url(#linear-gradient);}.cls-2{font-size:51px;}.cls-2,.cls-9{fill:#fff;}.cls-11,.cls-2,.cls-9{font-family:ArialRoundedMTBold, Arial Rounded MT Bold;}.cls-3{letter-spacing:-0.01em;}.cls-4{letter-spacing:-0.02em;}.cls-5,.cls-6,.cls-7,.cls-8{stroke:#2b4e99;stroke-miterlimit:10;stroke-width:9px;}.cls-5{fill:url(#linear-gradient-2);}.cls-6{fill:url(#linear-gradient-3);}.cls-7{fill:url(#linear-gradient-4);}.cls-8{fill:url(#linear-gradient-5);}.cls-11,.cls-9{font-size:30px;}.cls-10,.cls-11{fill:#2b4e99;}</style><linearGradient id="linear-gradient" x1="645.1" y1="20.13" x2="647.9" y2="504.73" gradientUnits="userSpaceOnUse"><stop offset="0.02" stop-color="#687fb3"/><stop offset="0.59" stop-color="#adc7ff"/><stop offset="0.59" stop-color="#adc7ff"/><stop offset="0.77" stop-color="#d9e5ff"/><stop offset="0.92" stop-color="#f5f8ff"/><stop offset="1" stop-color="#fff"/></linearGradient><linearGradient id="linear-gradient-2" x1="752.92" y1="-518.12" x2="949.06" y2="-518.12" gradientTransform="matrix(0, -1, -1, 0, 225.74, 1238.14)" xlink:href="#linear-gradient"/><linearGradient id="linear-gradient-3" x1="1923.05" y1="-518.12" x2="2119.19" y2="-518.12" gradientTransform="translate(225.74 -1834.84) rotate(90)" xlink:href="#linear-gradient"/><linearGradient id="linear-gradient-4" x1="752.92" y1="773.54" x2="949.06" y2="773.54" gradientTransform="translate(-227.49 1238.14) rotate(-90)" xlink:href="#linear-gradient"/><linearGradient id="linear-gradient-5" x1="1923.05" y1="773.54" x2="2119.19" y2="773.54" gradientTransform="matrix(0, 1, 1, 0, -227.49, -1834.84)" xlink:href="#linear-gradient"/></defs><g id="Layer_2" data-name="Layer 2"><g id="Layer_1-2" data-name="Layer 1"><rect class="cls-1" width="1293" height="523.42"/><text class="cls-2" transform="translate(505.28 59.32)">Who <tspan class="cls-3" x="122.2" y="0">w</tspan><tspan x="162.99" y="0">e a</tspan><tspan class="cls-4" x="236.35" y="0">r</tspan><tspan x="257.42" y="0">e</tspan></text><path class="cls-5" d="M743.86,289.19c-27.64,0-98-.11-98-.11V387.2a98,98,0,1,0,98-98Z"/><path class="cls-6" d="M743.86,284.25c-27.64,0-98,.1-98,.1V186.23a98,98,0,1,1,98,98Z"/><path class="cls-7" d="M546.05,289.19c27.64,0,98-.11,98-.11V387.2a98,98,0,1,1-98-98Z"/><path class="cls-8" d="M546.05,284.25c27.64,0,98,.1,98,.1V186.23a98,98,0,1,0-98,98Z"/><text class="cls-9"><tspan x="468.92" y="183.18">Man</tspan><tspan class="cls-3" x="529.86" y="183.18">a</tspan><tspan x="547.29" y="183.18">ging </tspan><tspan x="495.6" y="219.18">Editor</tspan></text><path class="cls-10" d="M689.93,164v11.25a21.8,21.8,0,0,1-.12,2.49,7.79,7.79,0,0,1-.57,2.08,5.5,5.5,0,0,1-2.41,2.76,8,8,0,0,1-4.1,1,8.63,8.63,0,0,1-3.64-.68,5.38,5.38,0,0,1-2.36-2.23,8.57,8.57,0,0,1-.76-1.89,7.9,7.9,0,0,1-.29-2,2,2,0,0,1,.57-1.56,2,2,0,0,1,1.47-.55,1.65,1.65,0,0,1,1.3.5,3.45,3.45,0,0,1,.67,1.55,14.05,14.05,0,0,0,.5,1.81,2.71,2.71,0,0,0,.84,1.15,2.5,2.5,0,0,0,1.67.49q2.88,0,2.88-4.24V164a2.88,2.88,0,0,1,.58-2,2,2,0,0,1,1.58-.66,2.05,2.05,0,0,1,1.6.66A2.88,2.88,0,0,1,689.93,164Z"/><path class="cls-10" d="M709.34,175.41a9.26,9.26,0,0,1-.56,3.3,7.1,7.1,0,0,1-1.61,2.59,6.88,6.88,0,0,1-2.52,1.66,9.56,9.56,0,0,1-6.56,0A7.22,7.22,0,0,1,694,178.7a10.12,10.12,0,0,1,0-6.61,6.94,6.94,0,0,1,4.11-4.23,9.06,9.06,0,0,1,3.27-.58,8.84,8.84,0,0,1,3.29.59,7.05,7.05,0,0,1,4.14,4.25A9.35,9.35,0,0,1,709.34,175.41Zm-4,0a6,6,0,0,0-1.08-3.8,3.5,3.5,0,0,0-2.89-1.37,3.65,3.65,0,0,0-2.07.61,3.86,3.86,0,0,0-1.37,1.8,8,8,0,0,0,0,5.5,4,4,0,0,0,1.36,1.8,3.58,3.58,0,0,0,2.09.62,3.5,3.5,0,0,0,2.89-1.37A6,6,0,0,0,705.33,175.41Z"/><path class="cls-10" d="M722.88,181.29v-.51a9.05,9.05,0,0,1-1.51,1.52,5.63,5.63,0,0,1-1.73.91,7,7,0,0,1-2.14.3,5.54,5.54,0,0,1-2.6-.6,4.37,4.37,0,0,1-1.78-1.65,7.3,7.3,0,0,1-.75-3.66v-7.93a2.52,2.52,0,0,1,.55-1.79,1.84,1.84,0,0,1,1.43-.6,1.92,1.92,0,0,1,1.47.6,2.58,2.58,0,0,1,.55,1.79v6.4a9.68,9.68,0,0,0,.24,2.34,2.75,2.75,0,0,0,.84,1.48,2.37,2.37,0,0,0,1.65.53,3.34,3.34,0,0,0,1.9-.6,3.54,3.54,0,0,0,1.31-1.56,12.88,12.88,0,0,0,.33-3.72v-4.87a2.58,2.58,0,0,1,.56-1.79,1.88,1.88,0,0,1,1.45-.6,1.84,1.84,0,0,1,1.43.6,2.52,2.52,0,0,1,.55,1.79v11.59a2.5,2.5,0,0,1-.52,1.71,1.86,1.86,0,0,1-2.7,0A2.38,2.38,0,0,1,722.88,181.29Z"/><path class="cls-10" d="M734.58,177.77v3.34a2.61,2.61,0,0,1-.57,1.83,1.91,1.91,0,0,1-1.45.6,1.82,1.82,0,0,1-1.42-.61,2.64,2.64,0,0,1-.56-1.82V170q0-2.7,1.95-2.7a1.65,1.65,0,0,1,1.44.63,3.51,3.51,0,0,1,.48,1.86,7.09,7.09,0,0,1,1.47-1.86,3.05,3.05,0,0,1,2-.63,5.13,5.13,0,0,1,2.44.63,1.89,1.89,0,0,1,1.19,1.67,1.57,1.57,0,0,1-.51,1.21,1.55,1.55,0,0,1-1.09.48,5,5,0,0,1-1.06-.27,5,5,0,0,0-1.49-.27,2.15,2.15,0,0,0-1.43.46,3,3,0,0,0-.87,1.37,9.84,9.84,0,0,0-.42,2.16C734.62,175.55,734.58,176.57,734.58,177.77Z"/><path class="cls-10" d="M747.38,169.5V170a7,7,0,0,1,2.31-2,6.11,6.11,0,0,1,2.88-.66,5.76,5.76,0,0,1,2.83.69,4.38,4.38,0,0,1,1.86,1.95,4.8,4.8,0,0,1,.51,1.58,16.07,16.07,0,0,1,.12,2.17v7.44a2.69,2.69,0,0,1-.55,1.82,2,2,0,0,1-2.88,0,2.64,2.64,0,0,1-.56-1.8v-6.66a6.63,6.63,0,0,0-.55-3,2.22,2.22,0,0,0-2.19-1,3.3,3.3,0,0,0-1.95.64,3.7,3.7,0,0,0-1.28,1.75,12.27,12.27,0,0,0-.3,3.34v5a2.65,2.65,0,0,1-.56,1.83,1.92,1.92,0,0,1-1.46.6,1.8,1.8,0,0,1-1.42-.63,2.64,2.64,0,0,1-.56-1.8V169.55a2.5,2.5,0,0,1,.5-1.7,1.72,1.72,0,0,1,1.36-.57,1.93,1.93,0,0,1,1,.25,1.84,1.84,0,0,1,.68.75A2.65,2.65,0,0,1,747.38,169.5Z"/><path class="cls-10" d="M772,181.29a12.54,12.54,0,0,1-2.81,1.69,7.73,7.73,0,0,1-3,.56,5.84,5.84,0,0,1-2.7-.6,4.47,4.47,0,0,1-1.79-1.65A4.31,4.31,0,0,1,761,179a4,4,0,0,1,1-2.8,5.22,5.22,0,0,1,2.85-1.55l1.89-.39c1-.21,1.87-.4,2.59-.57s1.49-.38,2.33-.62a4.12,4.12,0,0,0-.63-2.32,2.88,2.88,0,0,0-2.34-.74,4.91,4.91,0,0,0-2.29.42,3.83,3.83,0,0,0-1.32,1.28,13.08,13.08,0,0,1-.78,1.12,1.26,1.26,0,0,1-1,.27,1.67,1.67,0,0,1-1.16-.43,1.42,1.42,0,0,1-.5-1.11,3.37,3.37,0,0,1,.75-2.05,5.42,5.42,0,0,1,2.33-1.64,10.51,10.51,0,0,1,3.94-.65,11.07,11.07,0,0,1,4.15.63,3.86,3.86,0,0,1,2.13,2,8.7,8.7,0,0,1,.62,3.57c0,.94,0,1.74,0,2.39s0,1.38,0,2.18a8.32,8.32,0,0,0,.37,2.35,7.54,7.54,0,0,1,.38,1.58,1.47,1.47,0,0,1-.58,1.12,2,2,0,0,1-1.31.5,1.76,1.76,0,0,1-1.22-.58A8.46,8.46,0,0,1,772,181.29Zm-.27-5.79a19,19,0,0,1-2.55.68c-1.12.24-1.89.42-2.32.53a3.09,3.09,0,0,0-1.23.66,1.69,1.69,0,0,0-.59,1.37,2.05,2.05,0,0,0,.69,1.55,2.57,2.57,0,0,0,1.8.63,4.65,4.65,0,0,0,2.19-.52,3.38,3.38,0,0,0,1.47-1.34,6.13,6.13,0,0,0,.54-3Z"/><path class="cls-10" d="M779.7,181.11V163.77a2.74,2.74,0,0,1,.53-1.82,1.82,1.82,0,0,1,1.45-.61,1.87,1.87,0,0,1,1.46.61,2.61,2.61,0,0,1,.56,1.82v17.34a2.61,2.61,0,0,1-.57,1.83,1.89,1.89,0,0,1-1.45.6,1.79,1.79,0,0,1-1.43-.63A2.64,2.64,0,0,1,779.7,181.11Z"/><path class="cls-10" d="M702.54,201.06h-9.8v5.27h9a2.16,2.16,0,0,1,1.49.45,1.54,1.54,0,0,1,.49,1.18,1.58,1.58,0,0,1-.49,1.19,2.08,2.08,0,0,1-1.49.46h-9v6.11h10.14a2.23,2.23,0,0,1,1.55.48,1.76,1.76,0,0,1,0,2.5,2.23,2.23,0,0,1-1.55.48H691.06a2.77,2.77,0,0,1-2-.63,2.8,2.8,0,0,1-.63-2V200.37a3.67,3.67,0,0,1,.28-1.53,1.79,1.79,0,0,1,.87-.87,3.73,3.73,0,0,1,1.52-.27h11.48a2.28,2.28,0,0,1,1.55.46,1.56,1.56,0,0,1,.51,1.21,1.58,1.58,0,0,1-.51,1.23A2.28,2.28,0,0,1,702.54,201.06Z"/><path class="cls-10" d="M719.08,217.26v-.4a9.61,9.61,0,0,1-1.59,1.51,6.08,6.08,0,0,1-1.7.87,6.36,6.36,0,0,1-2,.3,5.92,5.92,0,0,1-2.65-.6A6.21,6.21,0,0,1,709,217.2a7.92,7.92,0,0,1-1.36-2.65,11.64,11.64,0,0,1-.46-3.3,8.57,8.57,0,0,1,1.83-5.84,6.09,6.09,0,0,1,4.82-2.1,6.41,6.41,0,0,1,2.92.6,8,8,0,0,1,2.31,1.82v-5.9a3,3,0,0,1,.49-1.86,1.68,1.68,0,0,1,1.4-.63,1.72,1.72,0,0,1,1.4.58,2.54,2.54,0,0,1,.49,1.7v17.64a2.4,2.4,0,0,1-.53,1.71,1.76,1.76,0,0,1-1.36.57,1.72,1.72,0,0,1-1.35-.59A2.43,2.43,0,0,1,719.08,217.26Zm-7.86-5.88a6.93,6.93,0,0,0,.5,2.77,3.84,3.84,0,0,0,1.39,1.72,3.36,3.36,0,0,0,1.92.58,3.49,3.49,0,0,0,1.92-.55,3.68,3.68,0,0,0,1.39-1.68,6.77,6.77,0,0,0,.52-2.84,6.57,6.57,0,0,0-.52-2.74,4.09,4.09,0,0,0-1.4-1.76,3.4,3.4,0,0,0-1.94-.61,3.32,3.32,0,0,0-2,.62,4.14,4.14,0,0,0-1.34,1.79A7.27,7.27,0,0,0,711.22,211.38Z"/><path class="cls-10" d="M728.9,201.42a2.11,2.11,0,0,1-1.43-.51,1.79,1.79,0,0,1-.59-1.45,1.82,1.82,0,0,1,.6-1.4,2.12,2.12,0,0,1,2.79-.05,1.78,1.78,0,0,1,.6,1.45,1.81,1.81,0,0,1-.58,1.44A2,2,0,0,1,728.9,201.42Zm2,4.13v11.56a2.6,2.6,0,0,1-.57,1.82,1.88,1.88,0,0,1-1.45.61,1.79,1.79,0,0,1-1.42-.63,2.64,2.64,0,0,1-.55-1.8V205.67a2.58,2.58,0,0,1,.55-1.79,1.83,1.83,0,0,1,1.42-.6,1.91,1.91,0,0,1,1.45.6A2.35,2.35,0,0,1,730.87,205.55Z"/><path class="cls-10" d="M735.23,203.64h.43v-2.41a14.63,14.63,0,0,1,.06-1.51,2.3,2.3,0,0,1,.28-.95,1.8,1.8,0,0,1,.68-.66,1.91,1.91,0,0,1,1-.26,2,2,0,0,1,1.37.57,1.61,1.61,0,0,1,.52.93,7.94,7.94,0,0,1,.11,1.56v2.73h1.47a1.89,1.89,0,0,1,1.3.4,1.34,1.34,0,0,1,.44,1,1.16,1.16,0,0,1-.64,1.13,4.18,4.18,0,0,1-1.82.32h-.75v7.35a12.75,12.75,0,0,0,.07,1.45,1.46,1.46,0,0,0,.35.82,1.2,1.2,0,0,0,.93.31,5.07,5.07,0,0,0,1-.12,5.39,5.39,0,0,1,.94-.13,1.2,1.2,0,0,1,.87.39,1.3,1.3,0,0,1,.39,1,1.6,1.6,0,0,1-1,1.48,7.22,7.22,0,0,1-3,.51,5.24,5.24,0,0,1-2.84-.63,2.93,2.93,0,0,1-1.26-1.74,11.29,11.29,0,0,1-.31-3v-7.68h-.52a1.91,1.91,0,0,1-1.32-.41,1.35,1.35,0,0,1-.46-1,1.28,1.28,0,0,1,.48-1A2.1,2.1,0,0,1,735.23,203.64Z"/><path class="cls-10" d="M760.6,211.41a9.48,9.48,0,0,1-.56,3.3,7.23,7.23,0,0,1-1.61,2.59,6.88,6.88,0,0,1-2.52,1.66,8.86,8.86,0,0,1-3.3.58,8.61,8.61,0,0,1-3.26-.58,7.24,7.24,0,0,1-2.52-1.68,7.46,7.46,0,0,1-1.61-2.58,10.12,10.12,0,0,1,0-6.61,7,7,0,0,1,4.12-4.23,9.49,9.49,0,0,1,6.56,0,7.12,7.12,0,0,1,4.14,4.25A9.58,9.58,0,0,1,760.6,211.41Zm-4,0a6,6,0,0,0-1.07-3.8,3.52,3.52,0,0,0-2.9-1.37,3.6,3.6,0,0,0-2.06.61,3.81,3.81,0,0,0-1.38,1.8,8.2,8.2,0,0,0,0,5.5,4,4,0,0,0,1.37,1.8,3.77,3.77,0,0,0,5-.75A6,6,0,0,0,756.58,211.41Z"/><path class="cls-10" d="M767.72,213.77v3.34a2.56,2.56,0,0,1-.58,1.83,1.91,1.91,0,0,1-1.45.6,1.83,1.83,0,0,1-1.42-.61,2.64,2.64,0,0,1-.55-1.82V206c0-1.8.65-2.7,1.94-2.7a1.62,1.62,0,0,1,1.44.63,3.51,3.51,0,0,1,.48,1.86,6.9,6.9,0,0,1,1.48-1.86,3,3,0,0,1,2-.63,5.17,5.17,0,0,1,2.45.63,1.88,1.88,0,0,1,1.18,1.67,1.6,1.6,0,0,1-.5,1.21,1.57,1.57,0,0,1-1.09.48A5.14,5.14,0,0,1,772,207a4.9,4.9,0,0,0-1.48-.27,2.16,2.16,0,0,0-1.44.46,2.91,2.91,0,0,0-.86,1.37,9.26,9.26,0,0,0-.43,2.16C767.75,211.55,767.72,212.57,767.72,213.77Z"/><text class="cls-11"><tspan x="473.68" y="368.18">Pu</tspan><tspan class="cls-3" x="511.81" y="368.18">b</tspan><tspan x="530.16" y="368.18">lishing</tspan><tspan x="493.97" y="404.18">A</tspan><tspan class="cls-3" x="515.54" y="404.18">d</tspan><tspan x="533.9" y="404.18">viser</tspan></text><text class="cls-9"><tspan x="669.38" y="368.18">Man</tspan><tspan class="cls-3" x="730.31" y="368.18">a</tspan><tspan x="747.74" y="368.18">ging </tspan><tspan x="696.05" y="404.18">Editor</tspan></text></g></g></svg>